<?xml version="1.0" standalone="no"?>
<!DOCTYPE svg PUBLIC "-//W3C//DTD SVG 20010904//EN"
 "http://www.w3.org/TR/2001/REC-SVG-20010904/DTD/svg10.dtd">
<svg version="1.0" xmlns="http://www.w3.org/2000/svg"
 width="2000.000000pt" height="2000.000000pt" viewBox="0 0 2000.000000 2000.000000"
 preserveAspectRatio="xMidYMid meet">

<g transform="translate(0.000000,2000.000000) scale(0.100000,-0.100000)"
fill="#000000" stroke="none">
<path d="M9730 17087 c-19 -11 -68 -42 -108 -69 -40 -26 -75 -48 -78 -48 -2 0
-39 -23 -82 -52 -42 -28 -156 -101 -252 -162 -195 -124 -373 -240 -797 -521
l-288 -190 -3 -1172 c-1 -645 2 -1173 6 -1173 4 0 12 4 18 9 5 4 41 25 79 46
39 20 77 43 85 50 8 7 47 30 85 51 39 21 111 64 162 96 51 32 95 58 98 58 3 0
69 40 148 88 174 108 294 180 367 219 30 16 102 59 160 94 162 101 361 220
402 242 20 11 38 27 40 36 2 9 1 556 -2 1217 l-5 1200 -35 -19z"/>
<path d="M10350 15907 c0 -1131 0 -1194 17 -1209 10 -8 45 -30 78 -48 33 -18
87 -50 120 -70 66 -40 190 -113 305 -180 41 -24 125 -74 185 -111 61 -36 146
-87 190 -112 44 -25 163 -96 265 -157 102 -62 199 -119 215 -128 17 -9 53 -31
82 -49 79 -50 225 -133 234 -133 5 0 9 521 9 1159 l0 1159 -122 80 c-68 44
-134 89 -148 100 -14 10 -47 31 -75 46 -27 16 -57 34 -66 42 -8 8 -19 14 -22
14 -4 0 -35 19 -70 43 -94 62 -374 242 -669 429 -82 51 -228 144 -325 205 -98
62 -183 113 -190 113 -9 0 -12 -274 -13 -1193z"/>
<path d="M7777 14690 c-26 -16 -50 -30 -52 -30 -5 0 -106 -61 -262 -157 -57
-35 -104 -63 -107 -63 -2 0 -95 -55 -208 -122 -112 -68 -272 -163 -355 -212
-131 -78 -152 -94 -157 -119 -11 -55 -7 -1157 4 -1157 6 0 35 15 63 34 29 18
71 41 92 52 22 10 85 46 140 80 105 64 542 326 597 358 182 103 289 174 294
191 2 11 3 280 2 598 l-3 578 -48 -31z"/>
<path d="M12352 14124 l3 -597 89 -53 c49 -30 91 -54 92 -54 2 0 58 -34 125
-75 66 -41 122 -75 125 -75 2 0 61 -34 132 -76 70 -42 147 -88 172 -102 25
-14 96 -56 158 -93 63 -38 115 -69 116 -69 2 0 40 -22 86 -50 46 -27 87 -50
92 -50 4 0 8 267 8 593 l-1 592 -147 87 c-133 78 -344 204 -382 228 -72 45
-182 110 -186 110 -2 0 -64 38 -138 84 -73 46 -155 96 -182 112 -118 67 -149
84 -157 84 -4 0 -6 -268 -5 -596z"/>
<path d="M10350 12620 c0 -1381 1 -1451 18 -1468 17 -17 338 -179 667 -336 88
-42 167 -80 175 -85 22 -12 28 -259 6 -267 -8 -3 -85 29 -171 70 -86 42 -159
76 -161 76 -3 0 -70 32 -150 70 -80 39 -148 70 -150 70 -4 0 -164 74 -196 91
-10 5 -22 9 -28 9 -6 0 -10 -849 -10 -2459 0 -2132 2 -2461 14 -2468 8 -4 330
-7 715 -5 l701 2 -2 3662 -3 3661 -30 17 c-16 9 -57 32 -90 50 -33 18 -64 36
-70 40 -9 7 -95 58 -225 132 -19 11 -71 42 -115 68 -44 26 -147 87 -230 135
-82 49 -178 106 -212 127 -34 21 -65 38 -68 38 -3 0 -42 23 -86 50 -44 28 -82
50 -85 50 -2 0 -28 16 -58 35 -30 19 -58 35 -61 35 -3 0 -23 11 -45 25 -22 14
-42 25 -45 25 -3 0 -5 -652 -5 -1450z"/>
<path d="M9715 14014 c-27 -14 -54 -29 -60 -34 -5 -4 -26 -17 -45 -27 -50 -28
-279 -161 -385 -223 -49 -29 -142 -82 -205 -118 -63 -35 -127 -73 -142 -83
-14 -11 -28 -19 -31 -19 -3 0 -51 -27 -108 -61 -56 -34 -110 -64 -118 -67 -9
-3 -57 -32 -108 -64 -51 -32 -97 -58 -102 -58 -6 0 -15 -9 -21 -20 -7 -13 -10
-440 -10 -1370 1 -1226 2 -1350 17 -1350 8 0 97 42 197 94 99 52 285 147 411
211 127 65 327 167 445 228 118 61 239 122 268 136 l52 25 0 1413 c0 777 -1
1413 -2 1413 -2 0 -25 -12 -53 -26z"/>
<path d="M13930 12836 l0 -384 158 -94 c86 -51 177 -104 202 -117 25 -13 50
-28 56 -33 33 -25 280 -168 291 -168 10 0 13 78 13 375 l0 375 -40 25 c-22 14
-42 25 -45 25 -4 0 -32 17 -63 38 -31 22 -62 41 -67 43 -29 11 -355 211 -365
224 -7 8 -18 15 -24 15 -6 0 -31 14 -56 30 -25 16 -48 30 -52 30 -5 0 -8 -173
-8 -384z"/>
<path d="M6208 13157 c-228 -137 -386 -232 -418 -252 -19 -12 -64 -39 -100
-60 -36 -21 -73 -45 -82 -53 -17 -14 -18 -188 -18 -3384 l0 -3370 30 7 c17 4
43 13 58 20 53 26 163 75 168 75 3 0 24 9 47 19 23 10 85 38 137 61 52 23 119
53 148 65 l52 24 0 2240 c0 1231 3 2247 6 2256 4 9 41 34 83 55 42 22 101 54
131 71 69 40 234 131 320 177 36 19 76 42 90 52 14 9 40 24 59 33 53 26 61 13
61 -108 0 -123 12 -109 -171 -201 l-89 -45 0 -220 c0 -121 3 -219 8 -217 4 2
57 28 117 59 61 31 116 54 123 52 16 -6 17 -168 1 -180 -7 -4 -64 -35 -128
-68 l-116 -60 -6 -105 c-9 -148 -11 -1070 -3 -1150 l6 -67 217 84 c119 46 239
94 267 108 28 13 90 37 138 54 48 17 96 35 106 41 20 11 20 28 20 1145 0 648
4 1144 9 1157 5 14 27 32 53 43 23 11 66 33 93 50 28 17 88 51 135 75 47 24
108 58 135 75 28 18 87 52 133 75 45 24 85 48 89 53 5 8 8 387 4 484 -1 7 -22
24 -48 39 -27 15 -61 36 -77 47 -26 18 -73 46 -196 115 -25 14 -58 34 -75 44
-16 10 -37 21 -45 25 -8 4 -57 33 -108 65 -51 32 -102 58 -112 58 -11 0 -54
-22 -97 -48 -43 -27 -125 -75 -183 -108 -173 -98 -195 -110 -238 -138 -23 -14
-44 -26 -47 -26 -3 0 -31 -16 -61 -35 -30 -19 -57 -35 -59 -35 -3 0 -22 -11
-43 -23 -20 -13 -57 -35 -82 -49 -25 -14 -92 -52 -150 -85 -58 -33 -151 -87
-208 -122 -57 -34 -111 -65 -120 -68 -9 -4 -39 -21 -67 -38 -65 -40 -111 -59
-130 -51 -13 4 -15 31 -15 163 0 87 3 167 6 179 3 13 48 45 122 89 64 38 124
74 132 81 8 6 35 23 60 37 l45 25 1 371 c1 333 -1 371 -15 370 -9 0 -55 -24
-103 -52z"/>
<path d="M12723 12682 c-28 -15 -78 -43 -110 -62 -32 -19 -74 -44 -93 -55 -19
-11 -63 -37 -96 -58 -34 -20 -65 -37 -68 -37 -4 0 -30 -15 -59 -33 -29 -18
-77 -46 -107 -62 -97 -51 -90 -28 -90 -291 0 -198 2 -235 16 -248 8 -9 19 -16
24 -16 5 0 49 -23 97 -51 48 -28 124 -70 168 -94 44 -23 118 -64 165 -91 47
-27 100 -56 118 -63 18 -8 37 -22 42 -31 5 -10 10 -488 11 -1171 1 -635 4
-1160 6 -1166 3 -7 12 -13 20 -13 8 0 88 -29 178 -65 90 -35 185 -72 212 -81
26 -9 71 -26 98 -39 28 -12 61 -25 75 -29 14 -4 34 -11 45 -16 11 -4 43 -17
70 -28 l50 -21 6 57 c8 68 9 1217 2 1250 -4 17 -31 35 -107 73 -140 70 -136
66 -136 166 0 58 4 85 13 88 6 3 57 -17 112 -45 55 -27 104 -50 110 -50 18 0
20 425 3 439 -7 6 -58 34 -113 62 -55 29 -106 56 -113 62 -9 7 -12 39 -10 116
3 101 4 106 25 109 21 3 155 -59 213 -99 29 -19 115 -66 375 -204 61 -32 120
-67 133 -78 l22 -20 0 -2258 0 -2257 103 -42 c56 -23 122 -51 147 -62 25 -11
54 -24 65 -28 11 -5 40 -18 65 -29 106 -46 220 -91 229 -91 8 0 11 840 11
2799 l0 2800 -29 20 c-16 12 -32 21 -35 21 -4 0 -25 12 -49 27 -36 23 -187
112 -295 174 -55 32 -174 100 -219 125 -23 13 -85 51 -138 84 -53 33 -98 60
-100 60 -2 0 -36 19 -77 43 -40 24 -93 55 -118 69 -61 34 -404 238 -513 304
-48 30 -89 54 -91 54 -3 0 -44 25 -92 55 -49 30 -95 55 -103 55 -9 0 -39 -13
-68 -28z"/>
<path d="M7940 11467 c-19 -11 -97 -51 -172 -89 l-138 -68 0 -685 c0 -377 2
-685 6 -685 14 0 311 153 327 168 16 17 17 60 15 698 l-3 681 -35 -20z"/>
<path d="M12235 10822 c0 -367 2 -677 3 -689 1 -17 19 -30 70 -54 37 -17 106
-51 154 -75 48 -24 94 -44 103 -44 13 0 15 75 13 682 l-3 682 -120 61 c-66 33
-140 69 -165 80 -25 11 -47 21 -50 22 -3 2 -5 -297 -5 -665z"/>
<path d="M9645 10754 c-61 -31 -227 -116 -370 -189 -143 -72 -316 -161 -385
-197 -69 -36 -242 -125 -385 -198 -143 -73 -264 -136 -270 -140 -16 -12 -302
-160 -410 -213 -55 -27 -126 -65 -157 -84 -53 -31 -58 -38 -58 -69 0 -36 14
-46 120 -84 19 -7 59 -24 88 -37 29 -12 55 -23 58 -23 3 0 20 -6 37 -14 18 -8
55 -22 82 -32 28 -10 80 -33 118 -51 l67 -33 81 41 c44 22 88 39 97 37 16 -3
17 -134 22 -1773 l5 -1770 693 -3 692 -2 0 2445 c0 1345 -4 2445 -8 2445 -4 0
-57 -25 -117 -56z"/>
<path d="M12087 9943 c-8 -15 -6 -497 3 -513 4 -8 25 -21 47 -28 21 -7 47 -17
58 -22 11 -4 72 -27 135 -50 63 -22 124 -45 135 -50 42 -18 95 -31 105 -25 12
7 14 464 2 481 -4 5 -25 18 -47 28 -22 10 -58 27 -79 37 -22 11 -43 19 -47 19
-5 0 -57 23 -116 51 -162 76 -188 86 -196 72z"/>
<path d="M8000 8754 c-25 -8 -58 -21 -75 -29 -16 -7 -79 -29 -140 -50 -60 -20
-123 -42 -140 -49 -16 -7 -79 -30 -140 -50 -60 -20 -119 -41 -130 -46 -11 -5
-74 -27 -140 -50 -120 -42 -199 -70 -265 -95 -72 -28 -176 -63 -200 -69 -59
-14 -55 77 -58 -1168 -1 -629 0 -1163 3 -1188 l6 -45 332 3 c242 2 334 7 339
15 4 7 8 413 8 902 0 490 4 895 8 900 7 11 301 114 412 145 76 21 218 68 240
79 13 7 15 65 18 410 3 452 10 415 -78 385z"/>
<path d="M12080 8683 c0 -10 -2 -157 -4 -328 -3 -170 -2 -333 1 -362 l6 -52
86 -26 c47 -15 97 -30 111 -35 14 -4 52 -16 85 -25 33 -9 110 -32 170 -51 61
-19 128 -39 150 -46 22 -6 46 -16 53 -21 9 -7 12 -202 12 -913 l0 -904 45 0
c376 -2 688 0 695 5 16 10 13 2302 -2 2312 -16 9 -104 40 -268 94 -486 160
-577 191 -595 198 -11 5 -114 40 -230 77 -115 37 -214 70 -220 74 -5 4 -29 10
-52 14 -37 5 -43 4 -43 -11z"/>
<path d="M8010 7535 c-25 -7 -80 -27 -123 -44 -43 -17 -86 -31 -96 -31 -10 0
-22 -8 -25 -17 -7 -18 -9 -1509 -2 -1521 2 -4 73 -5 158 -2 l153 5 0 809 c0
532 -3 810 -10 811 -5 1 -30 -3 -55 -10z"/>
<path d="M12075 6728 l0 -803 160 0 160 0 3 747 2 747 -22 21 c-12 11 -29 20
-39 20 -9 0 -65 16 -125 35 -59 19 -115 35 -124 35 -14 0 -16 -73 -15 -802z"/>
<path d="M9610 4005 l0 -735 114 0 113 0 13 63 c6 34 14 66 17 70 3 5 21 -10
40 -32 21 -25 62 -54 108 -77 63 -31 86 -37 162 -41 154 -9 275 36 378 141
103 105 145 215 145 381 0 165 -40 272 -143 381 -105 112 -252 164 -412 144
-85 -11 -160 -47 -224 -111 l-51 -50 0 300 0 301 -130 0 -130 0 0 -735z m665
51 c110 -51 169 -149 169 -281 -1 -104 -28 -168 -96 -230 -112 -100 -280 -100
-388 1 -163 153 -114 448 87 520 63 22 170 18 228 -10z"/>
<path d="M15300 4005 l0 -735 114 0 113 0 13 63 c6 34 14 66 17 70 3 5 21 -10
40 -32 21 -25 62 -54 108 -77 63 -31 86 -37 162 -41 154 -9 275 36 378 141
103 105 145 215 145 381 0 165 -40 272 -143 381 -105 112 -252 164 -412 144
-85 -11 -160 -47 -224 -111 l-51 -50 0 300 0 301 -130 0 -130 0 0 -735z m665
51 c110 -51 169 -149 169 -281 -1 -104 -28 -168 -96 -230 -112 -100 -280 -100
-388 1 -163 153 -114 448 87 520 63 22 170 18 228 -10z"/>
<path d="M3760 3985 l0 -715 125 0 125 0 0 500 c0 275 4 500 8 500 5 0 159
-225 343 -500 l334 -499 128 -1 127 0 0 715 0 715 -125 0 -125 0 0 -500 c0
-275 -4 -500 -8 -500 -5 0 -159 225 -342 500 l-333 500 -129 0 -128 0 0 -715z"/>
<path d="M12620 3985 l0 -715 125 0 125 0 2 313 3 312 323 3 322 2 0 -315 0
-315 130 0 130 0 0 715 0 715 -130 0 -130 0 0 -300 0 -300 -322 2 -323 3 -3
298 -2 297 -125 0 -125 0 0 -715z"/>
<path d="M8194 4300 c-74 -11 -137 -43 -198 -100 l-54 -51 -6 28 c-3 15 -8 45
-12 66 l-6 37 -114 0 -114 0 0 -505 0 -505 130 0 130 0 0 293 c0 320 6 366 55
436 72 105 244 123 327 35 60 -65 62 -79 66 -436 l3 -328 125 0 124 0 0 273
c0 348 12 419 87 489 64 61 173 76 253 36 37 -19 51 -34 75 -83 l30 -60 3
-327 3 -328 125 0 124 0 0 343 c0 363 -5 408 -50 497 -57 113 -150 172 -294
190 -138 17 -275 -29 -360 -120 l-47 -50 -62 64 c-46 48 -76 69 -117 83 -65
24 -156 33 -226 23z"/>
<path d="M11360 4303 c-118 -9 -230 -55 -306 -125 -45 -41 -97 -135 -109 -195
l-7 -33 126 0 c121 0 125 1 132 23 21 69 91 116 184 124 66 6 120 -8 169 -45
37 -28 56 -65 66 -133 l7 -46 -194 -6 c-106 -4 -218 -12 -248 -20 -166 -40
-259 -144 -260 -288 0 -91 24 -154 80 -210 72 -72 137 -93 285 -94 112 0 124
2 177 28 36 18 77 50 112 88 61 68 59 69 72 -44 l7 -57 109 0 109 0 -3 368
c-3 360 -4 368 -27 427 -27 68 -103 150 -169 184 -75 38 -211 62 -312 54z
m245 -625 c-19 -91 -82 -178 -150 -209 -84 -39 -218 -17 -253 41 -33 55 -5
147 53 174 47 22 61 24 213 25 l144 1 -7 -32z"/>
<path d="M5140 4277 c0 -2 87 -212 193 -468 l194 -464 31 -3 c18 -2 32 -5 32
-6 0 -2 -52 -117 -115 -256 -63 -139 -115 -254 -115 -256 0 -2 60 -4 133 -4
l134 0 258 588 c142 323 287 651 321 730 l63 143 -136 -3 -136 -3 -146 -352
c-80 -194 -148 -353 -151 -353 -3 0 -68 160 -145 355 l-140 355 -137 0 c-76 0
-138 -1 -138 -3z"/>
<path d="M6440 3943 c0 -359 6 -417 51 -504 33 -66 94 -124 162 -155 56 -26
72 -29 172 -29 98 0 116 3 167 27 61 28 153 107 163 139 13 39 23 17 31 -63
l9 -83 113 -3 112 -3 0 506 0 505 -125 0 -125 0 0 -257 c0 -288 -8 -365 -43
-432 -68 -134 -268 -173 -368 -72 -63 63 -69 100 -69 453 l0 308 -125 0 -125
0 0 -337z"/>
<path d="M14043 3933 c4 -368 8 -396 57 -498 29 -60 114 -135 181 -160 41 -15
79 -20 159 -20 92 0 112 3 160 26 65 30 113 69 151 122 15 21 30 34 32 30 3
-4 8 -43 12 -85 l7 -78 114 0 114 0 0 505 0 505 -130 0 -130 0 0 -300 c0 -276
-2 -303 -20 -353 -23 -62 -70 -115 -126 -143 -50 -24 -165 -25 -211 -1 -44 23
-89 82 -102 133 -7 26 -11 163 -11 353 l0 311 -131 0 -131 0 5 -347z"/>
</g>
</svg>
